# xmcd CD database file
#
# Track frame offsets:
#	150
#	11873
#	24615
#	38710
#	62060
#	76618
#	89785
#	100715
#	114470
#	127340
#	143428
#	155755
#	168023
#	181440
#
# Disc length: 2590 seconds
#
# Revision: 0
# Processed by: cddbd v1.5.1PL0 Copyright (c) Steve Scherf et al.
# Submitted via: CDex 1.51
#
DISCID=b30a1c0e
DTITLE=ポールモーリア - LOVE IS BLUE
DYEAR=1900
DGENRE=Jazz
TTITLE0=恋はみずいろ
TTITLE1=蒼いノクターン
TTITLE2=シバの女王
TTITLE3=恋のアランフェス
TTITLE4=花のサンフランシスコ
TTITLE5=ララのテーマ
TTITLE6=男と女
TTITLE7=パリのめぐり逢い
TTITLE8=赤いサラファン
TTITLE9=二つのギター
TTITLE10=ひとつぶの涙
TTITLE11=恋のひとこと
TTITLE12=愛のセレナーデ
TTITLE13=バラの憧れ
EXTD=
EXTT0=
EXTT1=
EXTT2=
EXTT3=
EXTT4=
EXTT5=
EXTT6=
EXTT7=
EXTT8=
EXTT9=
EXTT10=
EXTT11=
EXTT12=
EXTT13=
PLAYORDER=
